<svg xmlns="http://www.w3.org/2000/svg" width="980" height="430" viewBox="0 0 980 430">
<rect x="0" y="0" width="980" height="430" fill="#ffffff"/>
<text x="490.00" y="28.00" text-anchor="middle" font-family="Times New Roman, Times, serif" font-size="18" font-weight="bold" fill="#000000">Part 5 Pattern Scaling (CUDA Kernel-Only Timing)</text>
<text x="278.75" y="43.00" text-anchor="middle" font-family="Times New Roman, Times, serif" font-size="14" font-weight="bold" fill="#000000">Total Pipeline Time</text>
<text x="278.75" y="412.00" text-anchor="middle" font-family="Times New Roman, Times, serif" font-size="14" font-weight="normal" fill="#000000">Number of Patterns</text>
<text x="24.00" y="207.50" text-anchor="middle" font-family="Times New Roman, Times, serif" font-size="14" font-weight="normal" fill="#000000" transform="rotate(-90 24 207.5)">Pipeline Time (ms)</text>
<line x1="70.00" y1="360.00" x2="487.50" y2="360.00" stroke="#d9d9d9" stroke-width="0.8"/>
<line x1="70.00" y1="299.00" x2="487.50" y2="299.00" stroke="#d9d9d9" stroke-width="0.8"/>
<line x1="70.00" y1="238.00" x2="487.50" y2="238.00" stroke="#d9d9d9" stroke-width="0.8"/>
<line x1="70.00" y1="177.00" x2="487.50" y2="177.00" stroke="#d9d9d9" stroke-width="0.8"/>
<line x1="70.00" y1="116.00" x2="487.50" y2="116.00" stroke="#d9d9d9" stroke-width="0.8"/>
<line x1="70.00" y1="55.00" x2="487.50" y2="55.00" stroke="#d9d9d9" stroke-width="0.8"/>
<line x1="70.00" y1="360.00" x2="487.50" y2="360.00" stroke="#000000" stroke-width="1.4"/>
<line x1="70.00" y1="55.00" x2="70.00" y2="360.00" stroke="#000000" stroke-width="1.4"/>
<line x1="65.00" y1="360.00" x2="70.00" y2="360.00" stroke="#000000" stroke-width="1"/>
<text x="62.00" y="364.00" text-anchor="end" font-family="Times New Roman, Times, serif" font-size="12" font-weight="normal" fill="#000000">0</text>
<line x1="65.00" y1="299.00" x2="70.00" y2="299.00" stroke="#000000" stroke-width="1"/>
<text x="62.00" y="303.00" text-anchor="end" font-family="Times New Roman, Times, serif" font-size="12" font-weight="normal" fill="#000000">0.2</text>
<line x1="65.00" y1="238.00" x2="70.00" y2="238.00" stroke="#000000" stroke-width="1"/>
<text x="62.00" y="242.00" text-anchor="end" font-family="Times New Roman, Times, serif" font-size="12" font-weight="normal" fill="#000000">0.4</text>
<line x1="65.00" y1="177.00" x2="70.00" y2="177.00" stroke="#000000" stroke-width="1"/>
<text x="62.00" y="181.00" text-anchor="end" font-family="Times New Roman, Times, serif" font-size="12" font-weight="normal" fill="#000000">0.6</text>
<line x1="65.00" y1="116.00" x2="70.00" y2="116.00" stroke="#000000" stroke-width="1"/>
<text x="62.00" y="120.00" text-anchor="end" font-family="Times New Roman, Times, serif" font-size="12" font-weight="normal" fill="#000000">0.8</text>
<line x1="65.00" y1="55.00" x2="70.00" y2="55.00" stroke="#000000" stroke-width="1"/>
<text x="62.00" y="59.00" text-anchor="end" font-family="Times New Roman, Times, serif" font-size="12" font-weight="normal" fill="#000000">1</text>
<text x="70.00" y="382.00" text-anchor="middle" font-family="Times New Roman, Times, serif" font-size="12" font-weight="normal" fill="#000000">1</text>
<line x1="70.00" y1="360.00" x2="70.00" y2="364.00" stroke="#000000" stroke-width="1"/>
<text x="110.40" y="382.00" text-anchor="middle" font-family="Times New Roman, Times, serif" font-size="12" font-weight="normal" fill="#000000">4</text>
<line x1="110.40" y1="360.00" x2="110.40" y2="364.00" stroke="#000000" stroke-width="1"/>
<text x="164.27" y="382.00" text-anchor="middle" font-family="Times New Roman, Times, serif" font-size="12" font-weight="normal" fill="#000000">8</text>
<line x1="164.27" y1="360.00" x2="164.27" y2="364.00" stroke="#000000" stroke-width="1"/>
<text x="272.02" y="382.00" text-anchor="middle" font-family="Times New Roman, Times, serif" font-size="12" font-weight="normal" fill="#000000">16</text>
<line x1="272.02" y1="360.00" x2="272.02" y2="364.00" stroke="#000000" stroke-width="1"/>
<text x="487.50" y="382.00" text-anchor="middle" font-family="Times New Roman, Times, serif" font-size="12" font-weight="normal" fill="#000000">32</text>
<line x1="487.50" y1="360.00" x2="487.50" y2="364.00" stroke="#000000" stroke-width="1"/>
<polyline fill="none" stroke="#1f4e79" stroke-width="2.2" points="70.00,344.34 110.40,328.42 164.27,297.04 272.02,254.44 487.50,152.12"/>
<circle cx="70.00" cy="344.34" r="4.0" fill="#1f4e79" stroke="#000000" stroke-width="0.7"/>
<text x="70.00" y="336.34" text-anchor="middle" font-family="Times New Roman, Times, serif" font-size="11" font-weight="normal" fill="#000000">0.051</text>
<circle cx="110.40" cy="328.42" r="4.0" fill="#1f4e79" stroke="#000000" stroke-width="0.7"/>
<text x="110.40" y="320.42" text-anchor="middle" font-family="Times New Roman, Times, serif" font-size="11" font-weight="normal" fill="#000000">0.104</text>
<circle cx="164.27" cy="297.04" r="4.0" fill="#1f4e79" stroke="#000000" stroke-width="0.7"/>
<text x="164.27" y="289.04" text-anchor="middle" font-family="Times New Roman, Times, serif" font-size="11" font-weight="normal" fill="#000000">0.206</text>
<circle cx="272.02" cy="254.44" r="4.0" fill="#1f4e79" stroke="#000000" stroke-width="0.7"/>
<text x="272.02" y="246.44" text-anchor="middle" font-family="Times New Roman, Times, serif" font-size="11" font-weight="normal" fill="#000000">0.346</text>
<circle cx="487.50" cy="152.12" r="4.0" fill="#1f4e79" stroke="#000000" stroke-width="0.7"/>
<text x="487.50" y="144.12" text-anchor="middle" font-family="Times New Roman, Times, serif" font-size="11" font-weight="normal" fill="#000000">0.682</text>
<text x="741.25" y="43.00" text-anchor="middle" font-family="Times New Roman, Times, serif" font-size="14" font-weight="bold" fill="#000000">Pipeline Time Per Pattern</text>
<text x="741.25" y="412.00" text-anchor="middle" font-family="Times New Roman, Times, serif" font-size="14" font-weight="normal" fill="#000000">Number of Patterns</text>
<text x="486.50" y="207.50" text-anchor="middle" font-family="Times New Roman, Times, serif" font-size="14" font-weight="normal" fill="#000000" transform="rotate(-90 486.5 207.5)">Time / Pattern (ms)</text>
<line x1="532.50" y1="360.00" x2="950.00" y2="360.00" stroke="#d9d9d9" stroke-width="0.8"/>
<line x1="532.50" y1="283.75" x2="950.00" y2="283.75" stroke="#d9d9d9" stroke-width="0.8"/>
<line x1="532.50" y1="207.50" x2="950.00" y2="207.50" stroke="#d9d9d9" stroke-width="0.8"/>
<line x1="532.50" y1="131.25" x2="950.00" y2="131.25" stroke="#d9d9d9" stroke-width="0.8"/>
<line x1="532.50" y1="55.00" x2="950.00" y2="55.00" stroke="#d9d9d9" stroke-width="0.8"/>
<line x1="532.50" y1="360.00" x2="950.00" y2="360.00" stroke="#000000" stroke-width="1.4"/>
<line x1="532.50" y1="55.00" x2="532.50" y2="360.00" stroke="#000000" stroke-width="1.4"/>
<line x1="527.50" y1="360.00" x2="532.50" y2="360.00" stroke="#000000" stroke-width="1"/>
<text x="524.50" y="364.00" text-anchor="end" font-family="Times New Roman, Times, serif" font-size="12" font-weight="normal" fill="#000000">0</text>
<line x1="527.50" y1="283.75" x2="532.50" y2="283.75" stroke="#000000" stroke-width="1"/>
<text x="524.50" y="287.75" text-anchor="end" font-family="Times New Roman, Times, serif" font-size="12" font-weight="normal" fill="#000000">0.02</text>
<line x1="527.50" y1="207.50" x2="532.50" y2="207.50" stroke="#000000" stroke-width="1"/>
<text x="524.50" y="211.50" text-anchor="end" font-family="Times New Roman, Times, serif" font-size="12" font-weight="normal" fill="#000000">0.04</text>
<line x1="527.50" y1="131.25" x2="532.50" y2="131.25" stroke="#000000" stroke-width="1"/>
<text x="524.50" y="135.25" text-anchor="end" font-family="Times New Roman, Times, serif" font-size="12" font-weight="normal" fill="#000000">0.06</text>
<line x1="527.50" y1="55.00" x2="532.50" y2="55.00" stroke="#000000" stroke-width="1"/>
<text x="524.50" y="59.00" text-anchor="end" font-family="Times New Roman, Times, serif" font-size="12" font-weight="normal" fill="#000000">0.08</text>
<text x="532.50" y="382.00" text-anchor="middle" font-family="Times New Roman, Times, serif" font-size="12" font-weight="normal" fill="#000000">1</text>
<line x1="532.50" y1="360.00" x2="532.50" y2="364.00" stroke="#000000" stroke-width="1"/>
<text x="572.90" y="382.00" text-anchor="middle" font-family="Times New Roman, Times, serif" font-size="12" font-weight="normal" fill="#000000">4</text>
<line x1="572.90" y1="360.00" x2="572.90" y2="364.00" stroke="#000000" stroke-width="1"/>
<text x="626.77" y="382.00" text-anchor="middle" font-family="Times New Roman, Times, serif" font-size="12" font-weight="normal" fill="#000000">8</text>
<line x1="626.77" y1="360.00" x2="626.77" y2="364.00" stroke="#000000" stroke-width="1"/>
<text x="734.52" y="382.00" text-anchor="middle" font-family="Times New Roman, Times, serif" font-size="12" font-weight="normal" fill="#000000">16</text>
<line x1="734.52" y1="360.00" x2="734.52" y2="364.00" stroke="#000000" stroke-width="1"/>
<text x="950.00" y="382.00" text-anchor="middle" font-family="Times New Roman, Times, serif" font-size="12" font-weight="normal" fill="#000000">32</text>
<line x1="950.00" y1="360.00" x2="950.00" y2="364.00" stroke="#000000" stroke-width="1"/>
<polyline fill="none" stroke="#c55a11" stroke-width="2.2" points="532.50,164.21 572.90,261.33 626.77,261.62 734.52,277.53 950.00,278.80"/>
<circle cx="532.50" cy="164.21" r="4.0" fill="#c55a11" stroke="#000000" stroke-width="0.7"/>
<text x="532.50" y="156.21" text-anchor="middle" font-family="Times New Roman, Times, serif" font-size="11" font-weight="normal" fill="#000000">0.051</text>
<circle cx="572.90" cy="261.33" r="4.0" fill="#c55a11" stroke="#000000" stroke-width="0.7"/>
<text x="572.90" y="253.33" text-anchor="middle" font-family="Times New Roman, Times, serif" font-size="11" font-weight="normal" fill="#000000">0.026</text>
<circle cx="626.77" cy="261.62" r="4.0" fill="#c55a11" stroke="#000000" stroke-width="0.7"/>
<text x="626.77" y="253.62" text-anchor="middle" font-family="Times New Roman, Times, serif" font-size="11" font-weight="normal" fill="#000000">0.026</text>
<circle cx="734.52" cy="277.53" r="4.0" fill="#c55a11" stroke="#000000" stroke-width="0.7"/>
<text x="734.52" y="269.53" text-anchor="middle" font-family="Times New Roman, Times, serif" font-size="11" font-weight="normal" fill="#000000">0.022</text>
<circle cx="950.00" cy="278.80" r="4.0" fill="#c55a11" stroke="#000000" stroke-width="0.7"/>
<text x="950.00" y="270.80" text-anchor="middle" font-family="Times New Roman, Times, serif" font-size="11" font-weight="normal" fill="#000000">0.021</text>
</svg>
