<svg xmlns="http://www.w3.org/2000/svg" width="980" height="430" viewBox="0 0 980 430">
<rect x="0" y="0" width="980" height="430" fill="#ffffff"/>
<text x="490.00" y="28.00" text-anchor="middle" font-family="Times New Roman, Times, serif" font-size="18" font-weight="bold" fill="#000000">Part 4 TPB Sweep (CUDA Kernel-Only Timing)</text>
<text x="22.00" y="215.00" text-anchor="middle" font-family="Times New Roman, Times, serif" font-size="14" font-weight="normal" fill="#000000" transform="rotate(-90 22 215.0)">Pipeline Kernel Time (ms)</text>
<text x="278.75" y="43.00" text-anchor="middle" font-family="Times New Roman, Times, serif" font-size="14" font-weight="bold" fill="#000000">Stage 1 Sweep</text>
<line x1="70.00" y1="365.00" x2="487.50" y2="365.00" stroke="#d9d9d9" stroke-width="0.8"/>
<line x1="70.00" y1="313.33" x2="487.50" y2="313.33" stroke="#d9d9d9" stroke-width="0.8"/>
<line x1="70.00" y1="261.67" x2="487.50" y2="261.67" stroke="#d9d9d9" stroke-width="0.8"/>
<line x1="70.00" y1="210.00" x2="487.50" y2="210.00" stroke="#d9d9d9" stroke-width="0.8"/>
<line x1="70.00" y1="158.33" x2="487.50" y2="158.33" stroke="#d9d9d9" stroke-width="0.8"/>
<line x1="70.00" y1="106.67" x2="487.50" y2="106.67" stroke="#d9d9d9" stroke-width="0.8"/>
<line x1="70.00" y1="55.00" x2="487.50" y2="55.00" stroke="#d9d9d9" stroke-width="0.8"/>
<line x1="70.00" y1="365.00" x2="487.50" y2="365.00" stroke="#000000" stroke-width="1.4"/>
<line x1="70.00" y1="55.00" x2="70.00" y2="365.00" stroke="#000000" stroke-width="1.4"/>
<line x1="65.00" y1="365.00" x2="70.00" y2="365.00" stroke="#000000" stroke-width="1"/>
<text x="62.00" y="369.00" text-anchor="end" font-family="Times New Roman, Times, serif" font-size="12" font-weight="normal" fill="#000000">0</text>
<line x1="65.00" y1="313.33" x2="70.00" y2="313.33" stroke="#000000" stroke-width="1"/>
<text x="62.00" y="317.33" text-anchor="end" font-family="Times New Roman, Times, serif" font-size="12" font-weight="normal" fill="#000000">0.01</text>
<line x1="65.00" y1="261.67" x2="70.00" y2="261.67" stroke="#000000" stroke-width="1"/>
<text x="62.00" y="265.67" text-anchor="end" font-family="Times New Roman, Times, serif" font-size="12" font-weight="normal" fill="#000000">0.02</text>
<line x1="65.00" y1="210.00" x2="70.00" y2="210.00" stroke="#000000" stroke-width="1"/>
<text x="62.00" y="214.00" text-anchor="end" font-family="Times New Roman, Times, serif" font-size="12" font-weight="normal" fill="#000000">0.03</text>
<line x1="65.00" y1="158.33" x2="70.00" y2="158.33" stroke="#000000" stroke-width="1"/>
<text x="62.00" y="162.33" text-anchor="end" font-family="Times New Roman, Times, serif" font-size="12" font-weight="normal" fill="#000000">0.04</text>
<line x1="65.00" y1="106.67" x2="70.00" y2="106.67" stroke="#000000" stroke-width="1"/>
<text x="62.00" y="110.67" text-anchor="end" font-family="Times New Roman, Times, serif" font-size="12" font-weight="normal" fill="#000000">0.05</text>
<line x1="65.00" y1="55.00" x2="70.00" y2="55.00" stroke="#000000" stroke-width="1"/>
<text x="62.00" y="59.00" text-anchor="end" font-family="Times New Roman, Times, serif" font-size="12" font-weight="normal" fill="#000000">0.06</text>
<rect x="106.18" y="154.51" width="66.80" height="210.49" fill="#1f4e79" stroke="#000000" stroke-width="0.8"/>
<text x="139.58" y="387.00" text-anchor="middle" font-family="Times New Roman, Times, serif" font-size="12" font-weight="normal" fill="#000000">TPB 64</text>
<text x="139.58" y="148.51" text-anchor="middle" font-family="Times New Roman, Times, serif" font-size="11" font-weight="normal" fill="#000000">0.041</text>
<rect x="245.35" y="163.50" width="66.80" height="201.50" fill="#1f4e79" stroke="#000000" stroke-width="0.8"/>
<text x="278.75" y="387.00" text-anchor="middle" font-family="Times New Roman, Times, serif" font-size="12" font-weight="normal" fill="#000000">TPB 128</text>
<text x="278.75" y="157.50" text-anchor="middle" font-family="Times New Roman, Times, serif" font-size="11" font-weight="normal" fill="#000000">0.039</text>
<rect x="384.52" y="141.05" width="66.80" height="223.95" fill="#1f4e79" stroke="#000000" stroke-width="0.8"/>
<text x="417.92" y="387.00" text-anchor="middle" font-family="Times New Roman, Times, serif" font-size="12" font-weight="normal" fill="#000000">TPB 256</text>
<text x="417.92" y="135.05" text-anchor="middle" font-family="Times New Roman, Times, serif" font-size="11" font-weight="normal" fill="#000000">0.043</text>
<text x="741.25" y="43.00" text-anchor="middle" font-family="Times New Roman, Times, serif" font-size="14" font-weight="bold" fill="#000000">Stage 2 Sweep</text>
<line x1="532.50" y1="365.00" x2="950.00" y2="365.00" stroke="#d9d9d9" stroke-width="0.8"/>
<line x1="532.50" y1="287.50" x2="950.00" y2="287.50" stroke="#d9d9d9" stroke-width="0.8"/>
<line x1="532.50" y1="210.00" x2="950.00" y2="210.00" stroke="#d9d9d9" stroke-width="0.8"/>
<line x1="532.50" y1="132.50" x2="950.00" y2="132.50" stroke="#d9d9d9" stroke-width="0.8"/>
<line x1="532.50" y1="55.00" x2="950.00" y2="55.00" stroke="#d9d9d9" stroke-width="0.8"/>
<line x1="532.50" y1="365.00" x2="950.00" y2="365.00" stroke="#000000" stroke-width="1.4"/>
<line x1="532.50" y1="55.00" x2="532.50" y2="365.00" stroke="#000000" stroke-width="1.4"/>
<line x1="527.50" y1="365.00" x2="532.50" y2="365.00" stroke="#000000" stroke-width="1"/>
<text x="524.50" y="369.00" text-anchor="end" font-family="Times New Roman, Times, serif" font-size="12" font-weight="normal" fill="#000000">0</text>
<line x1="527.50" y1="287.50" x2="532.50" y2="287.50" stroke="#000000" stroke-width="1"/>
<text x="524.50" y="291.50" text-anchor="end" font-family="Times New Roman, Times, serif" font-size="12" font-weight="normal" fill="#000000">0.02</text>
<line x1="527.50" y1="210.00" x2="532.50" y2="210.00" stroke="#000000" stroke-width="1"/>
<text x="524.50" y="214.00" text-anchor="end" font-family="Times New Roman, Times, serif" font-size="12" font-weight="normal" fill="#000000">0.04</text>
<line x1="527.50" y1="132.50" x2="532.50" y2="132.50" stroke="#000000" stroke-width="1"/>
<text x="524.50" y="136.50" text-anchor="end" font-family="Times New Roman, Times, serif" font-size="12" font-weight="normal" fill="#000000">0.06</text>
<line x1="527.50" y1="55.00" x2="532.50" y2="55.00" stroke="#000000" stroke-width="1"/>
<text x="524.50" y="59.00" text-anchor="end" font-family="Times New Roman, Times, serif" font-size="12" font-weight="normal" fill="#000000">0.08</text>
<rect x="568.68" y="122.16" width="66.80" height="242.84" fill="#c55a11" stroke="#000000" stroke-width="0.8"/>
<text x="602.08" y="387.00" text-anchor="middle" font-family="Times New Roman, Times, serif" font-size="12" font-weight="normal" fill="#000000">TPB 128</text>
<text x="602.08" y="116.16" text-anchor="middle" font-family="Times New Roman, Times, serif" font-size="11" font-weight="normal" fill="#000000">0.063</text>
<rect x="707.85" y="191.87" width="66.80" height="173.13" fill="#c55a11" stroke="#000000" stroke-width="0.8"/>
<text x="741.25" y="387.00" text-anchor="middle" font-family="Times New Roman, Times, serif" font-size="12" font-weight="normal" fill="#000000">TPB 256</text>
<text x="741.25" y="185.87" text-anchor="middle" font-family="Times New Roman, Times, serif" font-size="11" font-weight="normal" fill="#000000">0.045</text>
<rect x="847.02" y="230.55" width="66.80" height="134.45" fill="#c55a11" stroke="#000000" stroke-width="0.8"/>
<text x="880.42" y="387.00" text-anchor="middle" font-family="Times New Roman, Times, serif" font-size="12" font-weight="normal" fill="#000000">TPB 512</text>
<text x="880.42" y="224.55" text-anchor="middle" font-family="Times New Roman, Times, serif" font-size="11" font-weight="normal" fill="#000000">0.035</text>
</svg>
