<svg xmlns="http://www.w3.org/2000/svg" width="760" height="460" viewBox="0 0 760 460">
<rect x="0" y="0" width="760" height="460" fill="#ffffff"/>
<text x="380.00" y="28.00" text-anchor="middle" font-family="Times New Roman, Times, serif" font-size="18" font-weight="bold" fill="#000000">gem5 SimSeconds Comparison for Parts 1-3</text>
<line x1="90.00" y1="385.00" x2="730.00" y2="385.00" stroke="#d9d9d9" stroke-width="0.8"/>
<line x1="90.00" y1="320.00" x2="730.00" y2="320.00" stroke="#d9d9d9" stroke-width="0.8"/>
<line x1="90.00" y1="255.00" x2="730.00" y2="255.00" stroke="#d9d9d9" stroke-width="0.8"/>
<line x1="90.00" y1="190.00" x2="730.00" y2="190.00" stroke="#d9d9d9" stroke-width="0.8"/>
<line x1="90.00" y1="125.00" x2="730.00" y2="125.00" stroke="#d9d9d9" stroke-width="0.8"/>
<line x1="90.00" y1="60.00" x2="730.00" y2="60.00" stroke="#d9d9d9" stroke-width="0.8"/>
<line x1="90.00" y1="385.00" x2="730.00" y2="385.00" stroke="#000000" stroke-width="1.4"/>
<line x1="90.00" y1="60.00" x2="90.00" y2="385.00" stroke="#000000" stroke-width="1.4"/>
<text x="380.00" y="440.00" text-anchor="middle" font-family="Times New Roman, Times, serif" font-size="14" font-weight="normal" fill="#000000">Implementation</text>
<text x="22.00" y="230.00" text-anchor="middle" font-family="Times New Roman, Times, serif" font-size="14" font-weight="normal" fill="#000000" transform="rotate(-90 22 230.0)">Simulated Time (s)</text>
<line x1="85.00" y1="385.00" x2="90.00" y2="385.00" stroke="#000000" stroke-width="1"/>
<text x="80.00" y="389.00" text-anchor="end" font-family="Times New Roman, Times, serif" font-size="12" font-weight="normal" fill="#000000">0</text>
<line x1="85.00" y1="320.00" x2="90.00" y2="320.00" stroke="#000000" stroke-width="1"/>
<text x="80.00" y="324.00" text-anchor="end" font-family="Times New Roman, Times, serif" font-size="12" font-weight="normal" fill="#000000">0.02</text>
<line x1="85.00" y1="255.00" x2="90.00" y2="255.00" stroke="#000000" stroke-width="1"/>
<text x="80.00" y="259.00" text-anchor="end" font-family="Times New Roman, Times, serif" font-size="12" font-weight="normal" fill="#000000">0.04</text>
<line x1="85.00" y1="190.00" x2="90.00" y2="190.00" stroke="#000000" stroke-width="1"/>
<text x="80.00" y="194.00" text-anchor="end" font-family="Times New Roman, Times, serif" font-size="12" font-weight="normal" fill="#000000">0.06</text>
<line x1="85.00" y1="125.00" x2="90.00" y2="125.00" stroke="#000000" stroke-width="1"/>
<text x="80.00" y="129.00" text-anchor="end" font-family="Times New Roman, Times, serif" font-size="12" font-weight="normal" fill="#000000">0.08</text>
<line x1="85.00" y1="60.00" x2="90.00" y2="60.00" stroke="#000000" stroke-width="1"/>
<text x="80.00" y="64.00" text-anchor="end" font-family="Times New Roman, Times, serif" font-size="12" font-weight="normal" fill="#000000">0.1</text>
<rect x="143.33" y="160.66" width="106.67" height="224.34" fill="#5b8c5a" stroke="#000000" stroke-width="0.8"/>
<text x="196.67" y="409.00" text-anchor="middle" font-family="Times New Roman, Times, serif" font-size="12" font-weight="normal" fill="#000000">Part 1</text>
<text x="196.67" y="154.66" text-anchor="middle" font-family="Times New Roman, Times, serif" font-size="11" font-weight="normal" fill="#000000">0.069</text>
<rect x="356.67" y="207.05" width="106.67" height="177.95" fill="#5b8c5a" stroke="#000000" stroke-width="0.8"/>
<text x="410.00" y="409.00" text-anchor="middle" font-family="Times New Roman, Times, serif" font-size="12" font-weight="normal" fill="#000000">Part 2</text>
<text x="410.00" y="201.05" text-anchor="middle" font-family="Times New Roman, Times, serif" font-size="11" font-weight="normal" fill="#000000">0.055</text>
<rect x="570.00" y="148.71" width="106.67" height="236.29" fill="#5b8c5a" stroke="#000000" stroke-width="0.8"/>
<text x="623.33" y="409.00" text-anchor="middle" font-family="Times New Roman, Times, serif" font-size="12" font-weight="normal" fill="#000000">Part 3</text>
<text x="623.33" y="142.71" text-anchor="middle" font-family="Times New Roman, Times, serif" font-size="11" font-weight="normal" fill="#000000">0.073</text>
</svg>
