<svg xmlns="http://www.w3.org/2000/svg" width="760" height="460" viewBox="0 0 760 460">
<rect x="0" y="0" width="760" height="460" fill="#ffffff"/>
<text x="380.00" y="28.00" text-anchor="middle" font-family="Times New Roman, Times, serif" font-size="18" font-weight="bold" fill="#000000">gem5 D-Cache Miss Rate for Parts 1-3</text>
<line x1="90.00" y1="385.00" x2="730.00" y2="385.00" stroke="#d9d9d9" stroke-width="0.8"/>
<line x1="90.00" y1="330.83" x2="730.00" y2="330.83" stroke="#d9d9d9" stroke-width="0.8"/>
<line x1="90.00" y1="276.67" x2="730.00" y2="276.67" stroke="#d9d9d9" stroke-width="0.8"/>
<line x1="90.00" y1="222.50" x2="730.00" y2="222.50" stroke="#d9d9d9" stroke-width="0.8"/>
<line x1="90.00" y1="168.33" x2="730.00" y2="168.33" stroke="#d9d9d9" stroke-width="0.8"/>
<line x1="90.00" y1="114.17" x2="730.00" y2="114.17" stroke="#d9d9d9" stroke-width="0.8"/>
<line x1="90.00" y1="60.00" x2="730.00" y2="60.00" stroke="#d9d9d9" stroke-width="0.8"/>
<line x1="90.00" y1="385.00" x2="730.00" y2="385.00" stroke="#000000" stroke-width="1.4"/>
<line x1="90.00" y1="60.00" x2="90.00" y2="385.00" stroke="#000000" stroke-width="1.4"/>
<text x="380.00" y="440.00" text-anchor="middle" font-family="Times New Roman, Times, serif" font-size="14" font-weight="normal" fill="#000000">Implementation</text>
<text x="22.00" y="230.00" text-anchor="middle" font-family="Times New Roman, Times, serif" font-size="14" font-weight="normal" fill="#000000" transform="rotate(-90 22 230.0)">Miss Rate</text>
<line x1="85.00" y1="385.00" x2="90.00" y2="385.00" stroke="#000000" stroke-width="1"/>
<text x="80.00" y="389.00" text-anchor="end" font-family="Times New Roman, Times, serif" font-size="12" font-weight="normal" fill="#000000">0</text>
<line x1="85.00" y1="330.83" x2="90.00" y2="330.83" stroke="#000000" stroke-width="1"/>
<text x="80.00" y="334.83" text-anchor="end" font-family="Times New Roman, Times, serif" font-size="12" font-weight="normal" fill="#000000">0.05</text>
<line x1="85.00" y1="276.67" x2="90.00" y2="276.67" stroke="#000000" stroke-width="1"/>
<text x="80.00" y="280.67" text-anchor="end" font-family="Times New Roman, Times, serif" font-size="12" font-weight="normal" fill="#000000">0.1</text>
<line x1="85.00" y1="222.50" x2="90.00" y2="222.50" stroke="#000000" stroke-width="1"/>
<text x="80.00" y="226.50" text-anchor="end" font-family="Times New Roman, Times, serif" font-size="12" font-weight="normal" fill="#000000">0.15</text>
<line x1="85.00" y1="168.33" x2="90.00" y2="168.33" stroke="#000000" stroke-width="1"/>
<text x="80.00" y="172.33" text-anchor="end" font-family="Times New Roman, Times, serif" font-size="12" font-weight="normal" fill="#000000">0.2</text>
<line x1="85.00" y1="114.17" x2="90.00" y2="114.17" stroke="#000000" stroke-width="1"/>
<text x="80.00" y="118.17" text-anchor="end" font-family="Times New Roman, Times, serif" font-size="12" font-weight="normal" fill="#000000">0.25</text>
<line x1="85.00" y1="60.00" x2="90.00" y2="60.00" stroke="#000000" stroke-width="1"/>
<text x="80.00" y="64.00" text-anchor="end" font-family="Times New Roman, Times, serif" font-size="12" font-weight="normal" fill="#000000">0.3</text>
<rect x="143.33" y="260.69" width="106.67" height="124.31" fill="#c55a11" stroke="#000000" stroke-width="0.8"/>
<text x="196.67" y="409.00" text-anchor="middle" font-family="Times New Roman, Times, serif" font-size="12" font-weight="normal" fill="#000000">Part 1</text>
<text x="196.67" y="254.69" text-anchor="middle" font-family="Times New Roman, Times, serif" font-size="11" font-weight="normal" fill="#000000">0.115</text>
<rect x="356.67" y="199.78" width="106.67" height="185.22" fill="#c55a11" stroke="#000000" stroke-width="0.8"/>
<text x="410.00" y="409.00" text-anchor="middle" font-family="Times New Roman, Times, serif" font-size="12" font-weight="normal" fill="#000000">Part 2</text>
<text x="410.00" y="193.78" text-anchor="middle" font-family="Times New Roman, Times, serif" font-size="11" font-weight="normal" fill="#000000">0.171</text>
<rect x="570.00" y="136.01" width="106.67" height="248.99" fill="#c55a11" stroke="#000000" stroke-width="0.8"/>
<text x="623.33" y="409.00" text-anchor="middle" font-family="Times New Roman, Times, serif" font-size="12" font-weight="normal" fill="#000000">Part 3</text>
<text x="623.33" y="130.01" text-anchor="middle" font-family="Times New Roman, Times, serif" font-size="11" font-weight="normal" fill="#000000">0.23</text>
</svg>
