<svg xmlns="http://www.w3.org/2000/svg" width="980" height="430" viewBox="0 0 980 430">
<rect x="0" y="0" width="980" height="430" fill="#ffffff"/>
<text x="490.00" y="28.00" text-anchor="middle" font-family="Times New Roman, Times, serif" font-size="18" font-weight="bold" fill="#000000">Part 4 Shared vs Serial Stage 1</text>
<text x="22.00" y="215.00" text-anchor="middle" font-family="Times New Roman, Times, serif" font-size="14" font-weight="normal" fill="#000000" transform="rotate(-90 22 215.0)">Kernel Time (ms)</text>
<text x="278.75" y="43.00" text-anchor="middle" font-family="Times New Roman, Times, serif" font-size="14" font-weight="bold" fill="#000000">Stage 1 LS Kernel Time</text>
<line x1="70.00" y1="365.00" x2="487.50" y2="365.00" stroke="#d9d9d9" stroke-width="0.8"/>
<line x1="70.00" y1="287.50" x2="487.50" y2="287.50" stroke="#d9d9d9" stroke-width="0.8"/>
<line x1="70.00" y1="210.00" x2="487.50" y2="210.00" stroke="#d9d9d9" stroke-width="0.8"/>
<line x1="70.00" y1="132.50" x2="487.50" y2="132.50" stroke="#d9d9d9" stroke-width="0.8"/>
<line x1="70.00" y1="55.00" x2="487.50" y2="55.00" stroke="#d9d9d9" stroke-width="0.8"/>
<line x1="70.00" y1="365.00" x2="487.50" y2="365.00" stroke="#000000" stroke-width="1.4"/>
<line x1="70.00" y1="55.00" x2="70.00" y2="365.00" stroke="#000000" stroke-width="1.4"/>
<line x1="65.00" y1="365.00" x2="70.00" y2="365.00" stroke="#000000" stroke-width="1"/>
<text x="62.00" y="369.00" text-anchor="end" font-family="Times New Roman, Times, serif" font-size="12" font-weight="normal" fill="#000000">0</text>
<line x1="65.00" y1="287.50" x2="70.00" y2="287.50" stroke="#000000" stroke-width="1"/>
<text x="62.00" y="291.50" text-anchor="end" font-family="Times New Roman, Times, serif" font-size="12" font-weight="normal" fill="#000000">0.05</text>
<line x1="65.00" y1="210.00" x2="70.00" y2="210.00" stroke="#000000" stroke-width="1"/>
<text x="62.00" y="214.00" text-anchor="end" font-family="Times New Roman, Times, serif" font-size="12" font-weight="normal" fill="#000000">0.1</text>
<line x1="65.00" y1="132.50" x2="70.00" y2="132.50" stroke="#000000" stroke-width="1"/>
<text x="62.00" y="136.50" text-anchor="end" font-family="Times New Roman, Times, serif" font-size="12" font-weight="normal" fill="#000000">0.15</text>
<line x1="65.00" y1="55.00" x2="70.00" y2="55.00" stroke="#000000" stroke-width="1"/>
<text x="62.00" y="59.00" text-anchor="end" font-family="Times New Roman, Times, serif" font-size="12" font-weight="normal" fill="#000000">0.2</text>
<rect x="124.28" y="338.07" width="100.20" height="26.93" fill="#1f4e79" stroke="#000000" stroke-width="0.8"/>
<text x="174.38" y="387.00" text-anchor="middle" font-family="Times New Roman, Times, serif" font-size="12" font-weight="normal" fill="#000000">Shared</text>
<text x="174.38" y="332.07" text-anchor="middle" font-family="Times New Roman, Times, serif" font-size="11" font-weight="normal" fill="#000000">0.017</text>
<rect x="333.02" y="155.72" width="100.20" height="209.28" fill="#1f4e79" stroke="#000000" stroke-width="0.8"/>
<text x="383.12" y="387.00" text-anchor="middle" font-family="Times New Roman, Times, serif" font-size="12" font-weight="normal" fill="#000000">Serial</text>
<text x="383.12" y="149.72" text-anchor="middle" font-family="Times New Roman, Times, serif" font-size="11" font-weight="normal" fill="#000000">0.135</text>
<text x="741.25" y="43.00" text-anchor="middle" font-family="Times New Roman, Times, serif" font-size="14" font-weight="bold" fill="#000000">End-to-End Pipeline Kernel Time</text>
<line x1="532.50" y1="365.00" x2="950.00" y2="365.00" stroke="#d9d9d9" stroke-width="0.8"/>
<line x1="532.50" y1="261.67" x2="950.00" y2="261.67" stroke="#d9d9d9" stroke-width="0.8"/>
<line x1="532.50" y1="158.33" x2="950.00" y2="158.33" stroke="#d9d9d9" stroke-width="0.8"/>
<line x1="532.50" y1="55.00" x2="950.00" y2="55.00" stroke="#d9d9d9" stroke-width="0.8"/>
<line x1="532.50" y1="365.00" x2="950.00" y2="365.00" stroke="#000000" stroke-width="1.4"/>
<line x1="532.50" y1="55.00" x2="532.50" y2="365.00" stroke="#000000" stroke-width="1.4"/>
<line x1="527.50" y1="365.00" x2="532.50" y2="365.00" stroke="#000000" stroke-width="1"/>
<text x="524.50" y="369.00" text-anchor="end" font-family="Times New Roman, Times, serif" font-size="12" font-weight="normal" fill="#000000">0</text>
<line x1="527.50" y1="261.67" x2="532.50" y2="261.67" stroke="#000000" stroke-width="1"/>
<text x="524.50" y="265.67" text-anchor="end" font-family="Times New Roman, Times, serif" font-size="12" font-weight="normal" fill="#000000">0.05</text>
<line x1="527.50" y1="158.33" x2="532.50" y2="158.33" stroke="#000000" stroke-width="1"/>
<text x="524.50" y="162.33" text-anchor="end" font-family="Times New Roman, Times, serif" font-size="12" font-weight="normal" fill="#000000">0.1</text>
<line x1="527.50" y1="55.00" x2="532.50" y2="55.00" stroke="#000000" stroke-width="1"/>
<text x="524.50" y="59.00" text-anchor="end" font-family="Times New Roman, Times, serif" font-size="12" font-weight="normal" fill="#000000">0.15</text>
<rect x="586.77" y="275.42" width="100.20" height="89.58" fill="#c55a11" stroke="#000000" stroke-width="0.8"/>
<text x="636.88" y="387.00" text-anchor="middle" font-family="Times New Roman, Times, serif" font-size="12" font-weight="normal" fill="#000000">Shared</text>
<text x="636.88" y="269.42" text-anchor="middle" font-family="Times New Roman, Times, serif" font-size="11" font-weight="normal" fill="#000000">0.043</text>
<rect x="795.52" y="120.03" width="100.20" height="244.97" fill="#c55a11" stroke="#000000" stroke-width="0.8"/>
<text x="845.62" y="387.00" text-anchor="middle" font-family="Times New Roman, Times, serif" font-size="12" font-weight="normal" fill="#000000">Serial</text>
<text x="845.62" y="114.03" text-anchor="middle" font-family="Times New Roman, Times, serif" font-size="11" font-weight="normal" fill="#000000">0.119</text>
</svg>
