<svg xmlns="http://www.w3.org/2000/svg" width="760" height="460" viewBox="0 0 760 460">
<rect x="0" y="0" width="760" height="460" fill="#ffffff"/>
<text x="380.00" y="28.00" text-anchor="middle" font-family="Times New Roman, Times, serif" font-size="18" font-weight="bold" fill="#000000">gem5 NumCycles Comparison for Parts 1-3</text>
<line x1="90.00" y1="385.00" x2="730.00" y2="385.00" stroke="#d9d9d9" stroke-width="0.8"/>
<line x1="90.00" y1="303.75" x2="730.00" y2="303.75" stroke="#d9d9d9" stroke-width="0.8"/>
<line x1="90.00" y1="222.50" x2="730.00" y2="222.50" stroke="#d9d9d9" stroke-width="0.8"/>
<line x1="90.00" y1="141.25" x2="730.00" y2="141.25" stroke="#d9d9d9" stroke-width="0.8"/>
<line x1="90.00" y1="60.00" x2="730.00" y2="60.00" stroke="#d9d9d9" stroke-width="0.8"/>
<line x1="90.00" y1="385.00" x2="730.00" y2="385.00" stroke="#000000" stroke-width="1.4"/>
<line x1="90.00" y1="60.00" x2="90.00" y2="385.00" stroke="#000000" stroke-width="1.4"/>
<text x="380.00" y="440.00" text-anchor="middle" font-family="Times New Roman, Times, serif" font-size="14" font-weight="normal" fill="#000000">Implementation</text>
<text x="22.00" y="230.00" text-anchor="middle" font-family="Times New Roman, Times, serif" font-size="14" font-weight="normal" fill="#000000" transform="rotate(-90 22 230.0)">Number of Cycles</text>
<line x1="85.00" y1="385.00" x2="90.00" y2="385.00" stroke="#000000" stroke-width="1"/>
<text x="80.00" y="389.00" text-anchor="end" font-family="Times New Roman, Times, serif" font-size="12" font-weight="normal" fill="#000000">0</text>
<line x1="85.00" y1="303.75" x2="90.00" y2="303.75" stroke="#000000" stroke-width="1"/>
<text x="80.00" y="307.75" text-anchor="end" font-family="Times New Roman, Times, serif" font-size="12" font-weight="normal" fill="#000000">50000k</text>
<line x1="85.00" y1="222.50" x2="90.00" y2="222.50" stroke="#000000" stroke-width="1"/>
<text x="80.00" y="226.50" text-anchor="end" font-family="Times New Roman, Times, serif" font-size="12" font-weight="normal" fill="#000000">100000k</text>
<line x1="85.00" y1="141.25" x2="90.00" y2="141.25" stroke="#000000" stroke-width="1"/>
<text x="80.00" y="145.25" text-anchor="end" font-family="Times New Roman, Times, serif" font-size="12" font-weight="normal" fill="#000000">150000k</text>
<line x1="85.00" y1="60.00" x2="90.00" y2="60.00" stroke="#000000" stroke-width="1"/>
<text x="80.00" y="64.00" text-anchor="end" font-family="Times New Roman, Times, serif" font-size="12" font-weight="normal" fill="#000000">200000k</text>
<rect x="143.33" y="160.66" width="106.67" height="224.34" fill="#1f4e79" stroke="#000000" stroke-width="0.8"/>
<text x="196.67" y="409.00" text-anchor="middle" font-family="Times New Roman, Times, serif" font-size="12" font-weight="normal" fill="#000000">Part 1</text>
<text x="196.67" y="154.66" text-anchor="middle" font-family="Times New Roman, Times, serif" font-size="11" font-weight="normal" fill="#000000">138056k</text>
<rect x="356.67" y="207.04" width="106.67" height="177.96" fill="#1f4e79" stroke="#000000" stroke-width="0.8"/>
<text x="410.00" y="409.00" text-anchor="middle" font-family="Times New Roman, Times, serif" font-size="12" font-weight="normal" fill="#000000">Part 2</text>
<text x="410.00" y="201.04" text-anchor="middle" font-family="Times New Roman, Times, serif" font-size="11" font-weight="normal" fill="#000000">109511k</text>
<rect x="570.00" y="148.70" width="106.67" height="236.30" fill="#1f4e79" stroke="#000000" stroke-width="0.8"/>
<text x="623.33" y="409.00" text-anchor="middle" font-family="Times New Roman, Times, serif" font-size="12" font-weight="normal" fill="#000000">Part 3</text>
<text x="623.33" y="142.70" text-anchor="middle" font-family="Times New Roman, Times, serif" font-size="11" font-weight="normal" fill="#000000">145413k</text>
</svg>
